<svg width="30" height="30" viewBox="0 0 30 30" fill="none" xmlns="http://www.w3.org/2000/svg">
<path d="M29.6689 19.9396C28.8374 18.0032 26.8374 17.9322 24.1345 18.3192C24.155 13.8053 24.9155 9.49433 26.3605 4.78341C27.0324 3.09644 22.0255 0.0329994 15.0007 0C7.97578 0.0329994 2.96837 3.09594 3.64036 4.78291C5.07684 9.46533 5.83232 13.8063 5.85932 18.3177C3.15987 17.9322 1.16241 18.0042 0.330921 19.9391C-1.48005 23.5376 4.24385 29.999 15.0002 29.999C25.757 29.999 31.4804 23.5376 29.6689 19.9396ZM5.24133 22.9206C5.24133 22.9206 5.91982 20.5481 5.81132 19.2937C11.7132 24.6056 18.2881 24.6056 24.1895 19.2937C24.212 20.5736 24.759 22.9206 24.759 22.9206C18.9491 28.449 11.0517 28.449 5.24133 22.9206Z" fill="#FFC739"/>
</svg>
